<?xml version="1.0" encoding="utf-8"?>
<!-- Generator: Adobe Illustrator 16.0.0, SVG Export Plug-In . SVG Version: 6.00 Build 0)  -->
<!DOCTYPE svg PUBLIC "-//W3C//DTD SVG 1.1//EN" "http://www.w3.org/Graphics/SVG/1.1/DTD/svg11.dtd">
<svg version="1.1" xmlns="http://www.w3.org/2000/svg" xmlns:xlink="http://www.w3.org/1999/xlink" x="0px" y="0px" width="1778px"
	 height="1741.963px" viewBox="0 0 1778 1741.963" enable-background="new 0 0 1778 1741.963" xml:space="preserve">
<g id="Layer_4">
	<polygon fill="#EDE821" points="991.722,612.001 1780.718,611.321 1780.718,0 1001.591,0.68 	"/>
	<path fill="#BFB9C6" d="M1426.77,612H988.122V0h455.148c-126-5-307.485,83.101-325.484,243.593
		C1093.988,455.781,1426.77,612,1426.77,612z"/>
	<rect x="986.682" y="1524.93" fill="#2D2D2B" width="792" height="218.587"/>
	<rect x="986.682" y="1402.93" fill="#4A4849" width="792" height="123.07"/>
	<rect x="987.697" y="1422.513" fill="#CCCCCE" width="792" height="88.496"/>
	<rect x="0.682" y="4.5" fill="#F9F9F7" width="990.781" height="1741.963"/>
</g>
<g id="bg">
	<path fill="#FCFAFD" d="M1459.088,612c-82.998-31.513-523.475-293.41-220.017-529.375c61.285-47.654,159.438-77.38,288.431-54.627
		c8.873,1.565,77.575,17.818,130.569,57.581c31.498,23.634,108.841,96.123,102.5,195.513
		C1748.571,469.186,1459.088,612,1459.088,612z"/>
</g>
<g id="drawings">
	<rect x="986" y="0" display="none" fill="#FFFFFF" stroke="#000000" stroke-miterlimit="10" width="792" height="612"/>
	<g>
		<g>
			<g>
				
					<path fill="none" stroke="#030202" stroke-width="7.9078" stroke-linecap="round" stroke-linejoin="round" stroke-miterlimit="10" d="
					M1411.089,435.584c-19.389-10.96-77.194-30.904-97.495-47.998c-34.911-29.391-45.655-73.678-70.553-97.266
					c-28.499-26.999-24-42-9.64-51.119c6.819-4.33,18.586,2.507,59.551,72.474"/>
				
					<path fill="none" stroke="#030202" stroke-width="7.9078" stroke-linecap="round" stroke-linejoin="round" stroke-miterlimit="10" d="
					M1635.989,276.986c0,0-5.333-30-8.666-30c1.5-41.998-9.258-62.568-9.258-62.568c3-7.5,11.656-29.721,21.258-24.099
					c8.784,5.143,9.176,15.201,8.713,41c-0.135,7.496,9.16,18.275,18.696,49.112c5.563,17.99-13.312,44.232-16.763,81.822
					c-5.146,56.067-23.656,92.285-30.146,121.067C1613.337,482.103,1718.003,585.575,1760,624l-150.361-1.491
					c0,0-97.399-96.759-125.065-112.605c-26.916-15.417-113.863-42.938-141.647-61.497c-24.31-16.242-76.98-65.493-90.885-81.085
					c-13.904-15.592-14.724-19.405-15-23c-1-13,6.605-30.59,28-4c37.733,46.895,78.1,73.53,42.56,41.847"/>
				<path fill="none" stroke="#030202" stroke-width="6.3233" stroke-miterlimit="10" d="M1278.668,157.653l10.667-24
					c0,0,29.188-9.086,40.706-15.333c12.776-6.931,8.861-7.151,19-11c23.042-8.745,23.132-41.664-3-25
					c-14.438,9.206-34.55,10.706-34.55,10.706s-43.917,10.134-52.45,24.294c-4.825,8.005-51.733,91.954-30.762,66.91
					c0.762-0.91-7.268,4.694-10.241,8.745c-14.196,19.345-4.916,38.353-6.196,53.345c-1.223,14.329,1.929,33.279,5.343,70.768
					c3.413,37.486,8.054,62.158-4.748,71.321c-12.801,9.163-48.231,47.668-52.497,50.998L1004,614l140.065,5.23l131.37-151.325
					c0,0,38.998-25.498,49.498-28.498"/>
				<path fill="none" stroke="#030202" stroke-width="6.3233" stroke-miterlimit="10" d="M1288.041,208.32
					c-14-37-24.59-33.046-28-31c-22.499,13.5,1.552,42.737,6.395,77.595c4.731,34.048,40.523,82.51,88.486,119.996"/>
				<path fill="none" stroke="#030202" stroke-width="6.3233" stroke-miterlimit="10" d="M1228.279,184.229l41.156-23.81
					c0,0,39.479-19.747,50.998-13.5"/>
				<polyline fill="none" stroke="#030202" stroke-width="6.3233" stroke-miterlimit="10" points="1257.041,221.32 1249.041,225.32 
					1252.936,251.915 				"/>
			</g>
			
				<line fill="none" stroke="#030202" stroke-width="6.3233" stroke-miterlimit="10" x1="1301.248" y1="182.98" x2="1280.668" y2="196.32"/>
		</g>
		<path fill="none" stroke="#000000" stroke-width="10.9057" stroke-miterlimit="10" d="M1448.348,94.619
			c2.54-0.131,5.074-0.197,7.599-0.197c81.112,0,146.869,65.139,146.869,145.491c0,80.354-65.757,145.496-146.869,145.496
			c-81.115,0-146.853-65.143-146.853-145.496C1309.094,147.868,1380.81,98.106,1448.348,94.619"/>
		<path display="none" fill="none" stroke="#000000" stroke-width="16.2934" stroke-miterlimit="10" d="M1618.913,243.295
			c0,90.729-73.557,164.29-164.294,164.29c-90.73,0-164.27-73.562-164.27-164.29c0-90.736,73.54-164.291,164.27-164.291
			C1545.356,79.004,1618.913,152.559,1618.913,243.295z"/>
		<g>
			<path d="M1611.698,321.055c-44.812,83.26-151.395,115.776-237.586,72.49c-86.188-43.286-119.86-146.238-75.049-229.495
				c44.815-83.263,151.388-115.787,237.585-72.499C1622.844,134.835,1656.511,237.791,1611.698,321.055z M1315.093,161.919
				c-40.576,75.389-11.345,178.162,66.694,217.36c78.051,39.194,173.77,9.317,215.14-65.642
				c48.137-87.222,15.193-177.021-62.857-216.215C1456.017,58.224,1355.67,86.524,1315.093,161.919z"/>
		</g>
	</g>
	<g>
		<g>
			<path d="M1580,185c-31-64-91.334-71.078-91-71c30,7,62,31,82.871,71.486c6.413,12.44,15.796,31.847,15.129,32.514
				c-0.338,0.337,3.196-6.402,3-8C1589.337,204.601,1584.59,194.476,1580,185z"/>
		</g>
		<path display="none" fill="none" stroke="#000000" stroke-width="8.8112" stroke-miterlimit="10" d="M1437.537,204.969
			c0,48.937-39.881,88.614-89.074,88.614c-49.197,0-89.073-39.677-89.073-88.614c0-48.941,39.876-88.617,89.073-88.617
			C1397.656,116.352,1437.537,156.027,1437.537,204.969z"/>
	</g>
	<path fill="none" stroke="#000000" stroke-width="6.2468" stroke-miterlimit="10" d="M1471.978,280.927"/>
	<g>
		<path fill="#E85524" d="M1550.692,239.639c0,55.641-45.118,100.75-100.759,100.75c-55.644,0-100.736-45.108-100.736-100.75
			c0-55.642,45.092-100.749,100.736-100.749C1505.574,138.89,1550.692,183.997,1550.692,239.639z"/>
		<g>
			<g>
				<path fill="#EDE4E6" d="M1363.534,298.643l34.571-51.276h-30.907v-8.787h50.182l-38.801,52.157h35v7.906H1363.534z"/>
			</g>
			<g>
				<path fill="#EDE4E6" d="M1438.593,232.737c0,16.528-9.682,25.291-21.49,25.291c-12.224,0-20.806-9.831-20.806-24.364
					c0-15.247,9.131-25.221,21.491-25.221C1430.421,208.443,1438.593,218.488,1438.593,232.737z M1403.604,233.521
					c0,10.258,4.433,16.954,13.843,16.954c9.473,0,13.909-6.553,13.909-17.452c0-9.546-3.886-16.778-13.844-16.778
					C1407.627,216.245,1403.604,222.977,1403.604,233.521z"/>
			</g>
			<g>
				<path fill="#EDE4E6" d="M1467.342,207.437c0,16.528-9.68,25.291-21.488,25.291c-12.223,0-20.806-9.831-20.806-24.365
					c0-15.246,9.131-25.221,21.491-25.221C1459.172,183.142,1467.342,193.188,1467.342,207.437z M1432.354,208.221
					c0,10.258,4.434,16.953,13.841,16.953c9.475,0,13.911-6.552,13.911-17.451c0-9.547-3.888-16.779-13.843-16.779
					C1436.378,190.943,1432.354,197.676,1432.354,208.221z"/>
			</g>
			<g>
				<path fill="#EDE4E6" d="M1507.079,175.925l-16.268,28.653h-6.04c0,0-10.412-22.162-12.147-27.257l-5.085,28.917l-6.739-10.574
					l7.201-31.919h9.042l11.526,30.945c1.176-3.285,9.445-20.607,13.608-30.227c0.479-1.102,10.599-0.367,10.599-0.367l5.04,43.958
					l-96.93,59.762l89.773-62.169C1510.66,205.648,1506.987,181.275,1507.079,175.925z"/>
			</g>
		</g>
		<g>
			<path fill="#EDE4E6" d="M1426.603,275.028v21.263h-4.845V277.03L1426.603,275.028z"/>
			<path fill="#EDE4E6" d="M1429.507,296.605v-23.119l3.771-1.665c0,0,6.541,16.471,7.359,17.911v-18.057l4.387-2.605v27.604
				l-4.706-0.226c0,0-5.831-12.247-6.699-13.768v13.925H1429.507z"/>
		</g>
		<path fill="#EDE4E6" d="M1489.159,276.881c0,14.352-4.489,19.857-10.063,19.857c-5.778,0-9.649-6.75-9.649-19.63
			c0-12.653,4.128-19.518,10.22-19.518C1485.599,257.59,1489.159,264.684,1489.159,276.881z M1474.299,277.165
			c0,7.885,0.67,14.658,5.057,14.658c4.487,0,5.039-7.283,5.039-14.772c0-7.148-0.552-13.762-5.092-13.762
			C1474.969,263.289,1474.299,269.392,1474.299,277.165z"/>
		<path fill="#EDE4E6" d="M1497.972,251.951v33.048c-0.004,6.372,1.624,6.962,2.465,6.887c2.846-0.248,3.162-0.945,3.162-6.887
			v-35.896l5.995-3.773v39.065c0,8.812-4.02,12.185-9.034,12.185c-5.066,0-8.376-3.323-8.376-11.732v-29.723L1497.972,251.951z"/>
		<path fill="#EDE4E6" d="M1519.852,248.416l-6.735,3.773v-9.821l19.177-10.154l1.009,9.412l-7.509,4.321l-0.278,50.328h-5.663
			V248.416z"/>
		<g>
			<path fill="#EDE4E6" d="M1462.534,294.746l-1.656-2.951c-0.984,2.103-2.85,2.974-4.022,3.009
				c-2.67,0.083-3.971-2.156-4.257-2.631c-0.868-1.438-1.212-3.012-1.263-4.202c-0.071-1.823,0.097-3.13,0.957-4.953
				c0.581-1.241,2.357-3.721,2.477-3.909c0,0-2.24-2.667-2.576-6.31c-0.347-3.797,1.708-7.896,4.372-7.936
				c2.633-0.04,4.546,3.078,4.621,7.136c0.083,4.417-3.018,7.261-3.018,7.261c0.739,1.789,2.695,5.924,2.821,6.145
				c0.034,0.056,0.814-2.954,1.42-6.299h2.945c0.058,1.054-1.146,6.853-2.364,9.509c0,0,3.161,5.883,3.161,6.13H1462.534z
				 M1458.784,288.279l-2.373-5.014c0,0-0.581,0.564-1.058,2.044c-0.586,1.816-0.226,4.588,1.655,4.588
				C1458.247,289.896,1458.784,288.279,1458.784,288.279z M1455.527,271.657c-0.059,1.391,0.938,3.407,0.938,3.407
				c0.954-1.887,1.034-2.225,1.095-3.477c0.044-0.925-0.3-1.716-0.956-1.786C1455.943,269.732,1455.574,270.593,1455.527,271.657z"
				/>
		</g>
		<polygon fill="#EDE4E6" points="1469.558,253.358 1544.677,203.277 1547.381,211.859 		"/>
	</g>
	<path fill="none" stroke="#ED1C6B" stroke-width="6.2468" stroke-miterlimit="10" d="M1326.391,140.203"/>
	<path fill="none" stroke="#000000" stroke-width="11.324" stroke-miterlimit="10" d="M1591.99,113.722"/>
	
		<line fill="none" stroke="#FCFAFD" stroke-width="2.3259" stroke-miterlimit="10" x1="1054.459" y1="199.091" x2="1054.459" y2="234.864"/>
	
		<line fill="none" stroke="#FCFAFD" stroke-width="2.3259" stroke-miterlimit="10" x1="1054.459" y1="327.294" x2="1054.459" y2="358.415"/>
	<g>
		<circle fill="#FCFAFD" cx="1053.317" cy="409.946" r="37.796"/>
		<path fill="none" stroke="#BFB9C6" stroke-width="3.4482" stroke-miterlimit="10" d="M1031.44,421.787c0,0,6-25.071,9-15.823
			c3,9.247,3.667,12.119,3.667,12.119s8.333-39.534,12.333-27.645c4,11.891,6.333,27.645,6.333,27.645s5.667-18.119,7.667-12.119
			c5.165,15.495,6,15.823,6,15.823S1054.773,437.977,1031.44,421.787z"/>
	</g>
	<g>
		<circle fill="#FCFAFD" cx="1054.296" cy="278.659" r="37.796"/>
		<g>
			<circle fill="none" stroke="#BFB9C6" stroke-width="3.4482" stroke-miterlimit="10" cx="1038.667" cy="274.667" r="8"/>
			<circle fill="none" stroke="#BFB9C6" stroke-width="3.4482" stroke-miterlimit="10" cx="1053.333" cy="264.667" r="8"/>
			<circle fill="none" stroke="#BFB9C6" stroke-width="3.4482" stroke-miterlimit="10" cx="1067.667" cy="272.667" r="8"/>
			<circle fill="none" stroke="#BFB9C6" stroke-width="3.4482" stroke-miterlimit="10" cx="1062.667" cy="290.667" r="8"/>
			<circle fill="none" stroke="#BFB9C6" stroke-width="3.4482" stroke-miterlimit="10" cx="1045" cy="291" r="8"/>
		</g>
	</g>
	<g>
		<circle fill="#FCFAFD" cx="1053.537" cy="151.499" r="37.796"/>
		
			<ellipse fill="none" stroke="#BFB9C6" stroke-width="2.748" stroke-miterlimit="10" cx="1055.045" cy="153.097" rx="3" ry="11.75"/>
		<path fill="none" stroke="#BFB9C6" stroke-width="2.748" stroke-miterlimit="10" d="M1052.045,147.347c0,0-17-21-19-7s12,12,12,12
			s-16,7-11,14s18-7,18-7"/>
		<path fill="none" stroke="#BFB9C6" stroke-width="2.7199" stroke-miterlimit="10" d="M1058.045,147.347c0,0,16.654-21,18.613-7
			c1.958,14-11.756,12-11.756,12s15.674,7,10.776,14s-17.633-7-17.633-7"/>
	</g>
</g>
<g id="nav">
	<g>
		<path fill="#FFFFFF" d="M1755.001,87.5c0,6.627-5.373,12-12,12h-33c-6.627,0-12-5.373-12-12v-33c0-6.627,5.373-12,12-12h33
			c6.627,0,12,5.373,12,12V87.5z"/>
		<g>
			
				<line fill="none" stroke="#4D494A" stroke-width="2" stroke-miterlimit="10" x1="1707.608" y1="60.102" x2="1746.606" y2="60.102"/>
			
				<line fill="none" stroke="#4D494A" stroke-width="2" stroke-miterlimit="10" x1="1707.608" y1="72.101" x2="1746.606" y2="72.101"/>
			
				<line fill="none" stroke="#4D494A" stroke-width="2" stroke-miterlimit="10" x1="1707.608" y1="84.101" x2="1746.606" y2="84.101"/>
		</g>
	</g>
	<polygon fill="#F6E763" points="1780,946.936 988,946.936 987.5,608.85 1779.5,608.85 	"/>
	<g>
		<circle fill="#FCFAFD" cx="1588" cy="1616.004" r="37.796"/>
		<path fill="none" stroke="#BFB9C6" stroke-width="3.4482" stroke-miterlimit="10" d="M1566.122,1627.845c0,0,6-25.071,9-15.823
			c3,9.247,3.667,12.119,3.667,12.119s8.333-39.534,12.333-27.645c4,11.891,6.334,27.645,6.334,27.645s5.666-18.119,7.666-12.119
			c5.166,15.495,6,15.823,6,15.823S1589.456,1644.034,1566.122,1627.845z"/>
	</g>
	<g>
		<circle fill="#FCFAFD" cx="1380" cy="1614" r="37.796"/>
		<g>
			<circle fill="none" stroke="#BFB9C6" stroke-width="3.4482" stroke-miterlimit="10" cx="1364.37" cy="1610.008" r="8"/>
			<circle fill="none" stroke="#BFB9C6" stroke-width="3.4482" stroke-miterlimit="10" cx="1379.038" cy="1600.008" r="8"/>
			<circle fill="none" stroke="#BFB9C6" stroke-width="3.4482" stroke-miterlimit="10" cx="1393.37" cy="1608.008" r="8"/>
			<circle fill="none" stroke="#BFB9C6" stroke-width="3.4482" stroke-miterlimit="10" cx="1388.37" cy="1626.008" r="8"/>
			<circle fill="none" stroke="#BFB9C6" stroke-width="3.4482" stroke-miterlimit="10" cx="1370.704" cy="1626.341" r="8"/>
		</g>
	</g>
	<g>
		<circle fill="#FCFAFD" cx="1169.492" cy="1614.151" r="37.797"/>
		<ellipse fill="none" stroke="#BFB9C6" stroke-width="2.748" stroke-miterlimit="10" cx="1171" cy="1615.75" rx="3" ry="11.75"/>
		<path fill="none" stroke="#BFB9C6" stroke-width="2.748" stroke-miterlimit="10" d="M1168,1610c0,0-17-21-19-7s12,12,12,12
			s-16,7-11,14s18-7,18-7"/>
		<path fill="none" stroke="#BFB9C6" stroke-width="2.7199" stroke-miterlimit="10" d="M1174,1610c0,0,16.654-21,18.613-7
			s-11.756,12-11.756,12s15.674,7,10.776,14s-17.634-7-17.634-7"/>
	</g>
	<rect x="1020.282" y="732.866" fill="none" width="745.796" height="220.603"/>
	<text transform="matrix(1 0 0 1 1020.2817 749.1963)"><tspan x="0" y="0" font-family="'MyriadPro-Regular'" font-size="23">This is a random photo gallery. The photos were taken is Boston, New York &amp;</tspan><tspan x="0" y="27.6" font-family="'MyriadPro-Regular'" font-size="23">White Mountains. This photo collection includes small wildlife, flora, farm, </tspan><tspan x="0" y="55.2" font-family="'MyriadPro-Regular'" font-size="23">and landscapes. Sometimes we don’t have to go to the most exotic places to </tspan><tspan x="0" y="82.8" font-family="'MyriadPro-Regular'" font-size="23">take interesting photos. No matter where you go, just take a camera, and </tspan><tspan x="0" y="110.399" font-family="'MyriadPro-Regular'" font-size="23">zoom in &amp; out the lens, many exciting moments are waiting for you to catch </tspan><tspan x="0" y="138" font-family="'MyriadPro-Regular'" font-size="23">and share.  </tspan></text>
	<text transform="matrix(1 0 0 1 1235.2705 701.8633)" font-family="'MyriadPro-Regular'" font-size="95">ABOUT</text>
	<rect x="990.781" y="945.801" fill="#FAFAFD" width="787.219" height="475.121"/>
	<g>
		<text transform="matrix(1 0 0 1 101.9116 538.333)"><tspan x="0" y="0" font-family="'MyriadPro-Regular'" font-size="76.4481">Site Name:</tspan><tspan x="0" y="72" font-family="'MyriadPro-Regular'" font-size="53">Zoom In &amp; Out</tspan><tspan x="0" y="144" font-family="'MyriadPro-Regular'" font-size="76.4481" letter-spacing="10">	</tspan></text>
	</g>
	<g>
		<text transform="matrix(1 0 0 1 524.9541 544.335)"><tspan x="0" y="0" font-family="'MyriadPro-Regular'" font-size="76.4481">Developer:</tspan><tspan x="0" y="72" font-family="'MyriadPro-Regular'" font-size="53">Pei Ren</tspan><tspan x="0" y="144" font-family="'MyriadPro-Regular'" font-size="76.4481" letter-spacing="10">	</tspan></text>
	</g>
	<g>
		<text transform="matrix(1 0 0 1 105.6855 288.2148)"><tspan x="0" y="0" font-family="'MyriadPro-Regular'" font-size="76.4481">FINAL PROJECT </tspan><tspan x="0" y="91.738" font-family="'MyriadPro-Regular'" font-size="76.4481">PROPOSAL/WIREFRAMES</tspan><tspan x="0" y="183.476" font-family="'MyriadPro-Regular'" font-size="76.4481" letter-spacing="10">	</tspan></text>
	</g>
	<g>
		<text transform="matrix(1 0 0 1 378.7119 816.7705)" font-family="'MyriadPro-Regular'" font-size="103" letter-spacing="14">	</text>
	</g>
	<path fill="none" stroke="#4D494A" stroke-width="2" stroke-miterlimit="10" d="M1297.333,1194.689"/>
	<path fill="none" stroke="#4D494A" stroke-width="2" stroke-miterlimit="10" d="M1464.896,1097.019"/>
	<path fill="none" stroke="#4D494A" stroke-width="2" stroke-miterlimit="10" d="M1447.002,1184.645"/>
	<path fill="none" stroke="#4D494A" stroke-width="2" stroke-miterlimit="10" d="M1311.845,1102.838"/>
	<g>
		<text transform="matrix(1 0 0 1 1224.8042 1209.7061)"><tspan x="0" y="0" fill="#4D494A" font-family="'MyriadPro-Regular'" font-size="103">PHOTO</tspan><tspan x="0" y="123.6" fill="#4D494A" font-family="'MyriadPro-Regular'" font-size="103" letter-spacing="14">	</tspan></text>
		
			<line fill="none" stroke="#4D494A" stroke-width="2" stroke-miterlimit="10" x1="1297.333" y1="1223.49" x2="1104.792" y2="1335.721"/>
		
			<line fill="none" stroke="#4D494A" stroke-width="2" stroke-miterlimit="10" x1="1665.848" y1="1008.688" x2="1464.896" y2="1125.819"/>
		
			<line fill="none" stroke="#4D494A" stroke-width="2" stroke-miterlimit="10" x1="1447.002" y1="1213.445" x2="1668.849" y2="1347.722"/>
		
			<line fill="none" stroke="#4D494A" stroke-width="2" stroke-miterlimit="10" x1="1098.792" y1="1002.687" x2="1304.797" y2="1127.374"/>
	</g>
	<line fill="none" stroke="#020203" stroke-miterlimit="10" x1="1109.604" y1="1421.034" x2="1109.604" y2="1510.673"/>
	<line fill="none" stroke="#020203" stroke-miterlimit="10" x1="1222.098" y1="1422.534" x2="1222.098" y2="1512.173"/>
	<line fill="none" stroke="#020203" stroke-miterlimit="10" x1="1330.093" y1="1422.534" x2="1330.093" y2="1512.173"/>
	<line fill="none" stroke="#020203" stroke-miterlimit="10" x1="1445.587" y1="1422.534" x2="1445.587" y2="1512.173"/>
	<line fill="none" stroke="#020203" stroke-miterlimit="10" x1="1562.581" y1="1424.034" x2="1562.581" y2="1513.673"/>
	<line fill="none" stroke="#020203" stroke-miterlimit="10" x1="1667.576" y1="1425.534" x2="1667.576" y2="1515.173"/>
	<text transform="matrix(1.08 0 0 1 1249.7178 1710.6602)" fill="#F6DA07" font-family="'MyriadPro-Regular'" font-size="18">Copyright 2017. All rights reserved. </text>
	
		<rect x="1109.604" y="1422.513" fill="#FFFFFF" stroke="#020203" stroke-width="1.1258" stroke-miterlimit="10" width="112.358" height="89.836"/>
	<g>
		<g>
			<text transform="matrix(1 0 0 1 100.7061 772.3408)"><tspan x="0" y="0" font-family="'MyriadPro-Regular'" font-size="76.4481">Project Goals:</tspan><tspan x="0" y="151.2" font-family="'MyriadPro-Regular'" font-size="103" letter-spacing="14">	</tspan></text>
		</g>
		<g>
			<text transform="matrix(1 0 0 1 106.7061 1303.3936)"><tspan x="0" y="0" font-family="'MyriadPro-Regular'" font-size="76.4481">Design &amp; FEWD:</tspan><tspan x="0" y="151.2" font-family="'MyriadPro-Regular'" font-size="103" letter-spacing="14">	</tspan></text>
		</g>
		<polygon fill="none" points="758.592,973.755 107.683,972.255 109.183,834.405 758.592,834.405 		"/>
		<text transform="matrix(1 0 0 1 109.1646 850.7383)"><tspan x="0" y="0" font-family="'MyriadPro-Regular'" font-size="23">Choose some of the photos taken in Boston, White Mountains &amp; </tspan><tspan x="-0.3" y="27.6" font-family="'MyriadPro-Regular'" font-size="23">New York and create a random photo gallery web site. This photo </tspan><tspan x="-0.6" y="55.2" font-family="'MyriadPro-Regular'" font-size="23">collection shows small wildlife, flora, farm, and landscapes.</tspan><tspan x="-0.901" y="82.8" font-family="'MyriadPro-Regular'" font-size="23">At the same time, delivered the following message to </tspan><tspan x="-1.201" y="110.399" font-family="'MyriadPro-Regular'" font-size="23">photography enthusiast:</tspan></text>
		<rect x="211.178" y="987.1" fill="none" width="470.977" height="162.728"/>
		<text transform="matrix(1 0 0 1 211.1782 1003.417)"><tspan x="0" y="0" font-family="'MyriadPro-Regular'" font-size="23">Sometimes we don’t have to go to the </tspan><tspan x="369.974" y="0" font-family="'MyriadPro-Regular'" font-size="23" letter-spacing="21">	</tspan><tspan x="396.001" y="0" font-family="'MyriadPro-Regular'" font-size="23" letter-spacing="31">	</tspan><tspan x="0" y="27.6" font-family="'MyriadPro-Regular'" font-size="23">most exotic places to take interesting </tspan><tspan x="361.717" y="27.6" font-family="'MyriadPro-Regular'" font-size="23" letter-spacing="29">	</tspan><tspan x="396.002" y="27.6" font-family="'MyriadPro-Regular'" font-size="23" letter-spacing="31">	</tspan><tspan x="0" y="55.2" font-family="'MyriadPro-Regular'" font-size="23">photos. No matter where you go, take a </tspan><tspan x="382.624" y="55.2" font-family="'MyriadPro-Regular'" font-size="23" letter-spacing="8">	</tspan><tspan x="396.003" y="55.2" font-family="'MyriadPro-Regular'" font-size="23" letter-spacing="31">	</tspan><tspan x="0" y="82.8" font-family="'MyriadPro-Regular'" font-size="23">camera, zoom in and out the lens, </tspan><tspan x="0" y="110.399" font-family="'MyriadPro-Regular'" font-size="23">many exciting moments are waiting for </tspan><tspan x="380.6" y="110.399" font-family="'MyriadPro-Regular'" font-size="23" letter-spacing="10">	</tspan><tspan x="396.001" y="110.399" font-family="'MyriadPro-Regular'" font-size="23" letter-spacing="31">	</tspan><tspan x="0" y="138" font-family="'MyriadPro-Regular'" font-size="23">us to catch and share. </tspan></text>
		<polygon fill="none" points="711.895,1490.847 110.683,1490.824 110.683,1353.392 711.895,1353.414 		"/>
		<text transform="matrix(1 0 0 1 110.6831 1369.708)"><tspan x="0" y="0" font-family="'MyriadPro-Regular'" font-size="23">Will have a clean design layout with easy navigation &amp; buttons</tspan><tspan x="0" y="27.6" font-family="'MyriadPro-Regular'" font-size="23">(make nav and buttons fixed to allow users easily navigate to </tspan><tspan x="0" y="55.2" font-family="'MyriadPro-Regular'" font-size="23">whatever interests them next no matter where they are </tspan><tspan x="0" y="82.8" font-family="'MyriadPro-Regular'" font-size="23">looking). In addition, add interactivity and animations to </tspan><tspan x="0" y="110.399" font-family="'MyriadPro-Regular'" font-size="23">make the site fun and interesting.</tspan></text>
	</g>
</g>
</svg>
